<svg width="512" height="512" viewBox="0 0 512 512" xmlns="http://www.w3.org/2000/svg">
  <defs>
    <radialGradient id="bgGradient" cx="50%" cy="50%" r="50%">
      <stop offset="0%" style="stop-color:#d4e8a0;stop-opacity:1" />
      <stop offset="40%" style="stop-color:#b8d070;stop-opacity:1" />
      <stop offset="100%" style="stop-color:#92b84d;stop-opacity:1" />
    </radialGradient>
    <filter id="shadow">
      <feGaussianBlur in="SourceAlpha" stdDeviation="3"/>
      <feOffset dx="0" dy="2" result="offsetblur"/>
      <feComponentTransfer>
        <feFuncA type="linear" slope="0.3"/>
      </feComponentTransfer>
      <feMerge>
        <feMergeNode/>
        <feMergeNode in="SourceGraphic"/>
      </feMerge>
    </filter>
  </defs>
  
  <!-- Main circle background -->
  <circle cx="256" cy="256" r="230" fill="url(#bgGradient)" filter="url(#shadow)"/>
  
  <!-- Outer border -->
  <circle cx="256" cy="256" r="235" fill="none" stroke="#3a4a2a" stroke-width="4" opacity="0.3"/>
  
  <!-- Spiral/swirl design -->
  <g transform="translate(256, 256)" filter="url(#shadow)">
    <!-- Largest outer curve -->
    <path d="M -90,10 Q -100,-110 20,-120 Q 130,-110 120,20 Q 110,100 20,90" 
          fill="none" 
          stroke="#8aa84d" 
          stroke-width="45" 
          stroke-linecap="round"/>
    
    <!-- Second layer -->
    <path d="M -50,10 Q -60,-70 15,-75 Q 85,-70 80,15 Q 75,65 20,60" 
          fill="none" 
          stroke="#e8f5d0" 
          stroke-width="38" 
          stroke-linecap="round"/>
    
    <!-- Third inner layer -->
    <path d="M -25,8 Q -30,-40 10,-42 Q 48,-40 45,10 Q 42,38 15,35" 
          fill="none" 
          stroke="#3a4a2a" 
          stroke-width="32" 
          stroke-linecap="round"
          opacity="0.8"/>
    
    <!-- Innermost curve -->
    <path d="M -8,5 Q -12,-18 5,-20 Q 22,-18 20,5 Q 18,18 8,16" 
          fill="none" 
          stroke="#e8f5d0" 
          stroke-width="26" 
          stroke-linecap="round"/>
    
    <!-- Center spiral endpoint -->
    <circle cx="0" cy="2" r="10" fill="#8aa84d"/>
    <circle cx="0" cy="2" r="6" fill="#e8f5d0"/>
  </g>
</svg>
